<?xml version="1.0" encoding="iso-8859-1"?>
<!-- Generator: Adobe Illustrator 19.0.0, SVG Export Plug-In . SVG Version: 6.00 Build 0)  -->
<svg xmlns="http://www.w3.org/2000/svg" xmlns:xlink="http://www.w3.org/1999/xlink" version="1.1" id="Layer_1" x="0px" y="0px" viewBox="0 0 511.999 511.999" style="enable-background:new 0 0 511.999 511.999;" xml:space="preserve" width="512px" height="512px">
<g>
	<g>
		<g>
			<path d="M67.385,43.105c-19.316,0-35.03,15.715-35.03,35.033c0,19.318,15.715,35.033,35.03,35.033     c19.316,0,35.031-15.715,35.031-35.033S86.701,43.105,67.385,43.105z M67.385,97.001c-10.401,0-18.862-8.463-18.862-18.863     c0-10.401,8.461-18.863,18.862-18.863c10.401,0,18.862,8.463,18.862,18.863C86.247,88.539,77.785,97.001,67.385,97.001z" fill="#0074a6"/>
			<path d="M97.026,250.605c0,19.317,15.715,35.033,35.031,35.033c19.316,0,35.03-15.715,35.03-35.033s-15.715-35.033-35.031-35.033     C112.74,215.572,97.026,231.288,97.026,250.605z M150.918,250.605c0,10.402-8.461,18.863-18.862,18.863     c-10.401,0-18.862-8.463-18.862-18.863c0-10.401,8.461-18.863,18.862-18.863C142.457,231.742,150.918,240.203,150.918,250.605z" fill="#0074a6"/>
			<path d="M493.138,43.105h-13.474v-4.637c0-8.962-6.377-16.741-15.163-18.498l-12.893-2.579c-4.382-0.876-8.636,1.964-9.512,6.342     c-0.875,4.378,1.964,8.637,6.341,9.512l12.893,2.579c1.256,0.25,2.167,1.362,2.167,2.642v79.338c0,1.281-0.911,2.392-2.167,2.642     l-60.444,12.09c-7.15,1.434-14.489-0.4-20.131-5.026c-5.642-4.624-8.876-11.46-8.876-18.755V47.517     c0-7.295,3.235-14.131,8.876-18.755c5.642-4.625,12.979-6.456,20.132-5.026l15.216,3.043c4.383,0.877,8.636-1.964,9.512-6.342     c0.875-4.378-1.964-8.637-6.342-9.512l-15.216-3.043c-11.92-2.385-24.15,0.669-33.552,8.377     c-8.255,6.767-13.418,16.375-14.556,26.847h-37.963v-2.695c0-10.402-8.461-18.863-18.862-18.863h-32.336     c-7.51,0-14.008,4.412-17.04,10.779H117.4C102.775,5.809,70.539-6.895,41.211,3.778c-15.708,5.717-28.25,17.21-35.315,32.361     C-1.168,51.289-1.91,68.284,3.807,83.995L64.639,251.14c0.016,0.044,0.033,0.088,0.05,0.133v50.533h-2.695     c-10.401,0-18.862,8.463-18.862,18.863v14.594c-12.428,3.528-21.557,14.979-21.557,28.523v88.928h-2.695     c-10.401,0-18.862,8.463-18.862,18.863v21.558c0,10.402,8.461,18.863,18.862,18.863H245.23c10.401,0,18.862-8.463,18.862-18.863     v-21.558c0-10.402-8.461-18.863-18.862-18.863h-2.695v-88.928c0-13.544-9.129-24.995-21.557-28.523v-14.594     c0-10.402-8.461-18.863-18.862-18.863h-2.695v-51.201c0-18.048-7.135-34.461-18.729-46.569l-56.609-155.54h123.841v2.695     c0,4.466,3.62,8.084,8.084,8.084c4.465,0,8.084-3.62,8.084-8.084V40.411c0-1.486,1.209-2.695,2.695-2.695h32.336     c1.485,0,2.695,1.208,2.695,2.695v75.455c0,1.486-1.209,2.695-2.695,2.695h-32.336c-1.485,0-2.695-1.208-2.695-2.695V83.527     c0-4.466-3.62-8.084-8.084-8.084c-4.465,0-8.084,3.62-8.084,8.084v24.254h-76.707c-4.465,0-8.084,3.62-8.084,8.084     c0,4.465,3.62,8.084,8.084,8.084h78.529c3.032,6.368,9.531,10.779,17.04,10.779h32.336c10.401,0,18.862-8.463,18.862-18.863     v-2.695h37.963c1.138,10.472,6.301,20.079,14.556,26.847c9.402,7.709,21.634,10.758,33.552,8.377l60.444-12.09     c8.787-1.757,15.164-9.536,15.164-18.498v-4.637h13.474c10.401,0,18.862-8.463,18.862-18.863V61.969     C512,51.567,503.539,43.105,493.138,43.105z M59.301,320.67c0-1.486,1.209-2.695,2.695-2.695h21.557     c1.485,0,2.695,1.208,2.695,2.695v13.474H59.301V320.67z M202.116,317.975c1.485,0,2.695,1.208,2.695,2.695v13.474h-26.946     V320.67c0-1.486,1.209-2.695,2.695-2.695H202.116z M183.254,250.605v51.201h-2.695c-10.401,0-18.862,8.463-18.862,18.863v13.474     h-13.474c-4.465,0-8.084,3.62-8.084,8.084c0,4.466,3.62,8.084,8.084,8.084h64.672c7.429,0,13.474,6.045,13.474,13.474v88.929     h-24.253c-4.465,0-8.084,3.62-8.084,8.084c0,4.465,3.62,8.084,8.084,8.084h43.115c1.485,0,2.695,1.208,2.695,2.695v21.558     c0,1.486-1.209,2.695-2.695,2.695H18.881c-1.485,0-2.695-1.208-2.695-2.695v-21.558c0-1.486,1.209-2.695,2.695-2.695h150.9     c4.465,0,8.084-3.62,8.084-8.084c0-4.465-3.62-8.084-8.084-8.084H37.744v-88.929c0-7.43,6.044-13.474,13.474-13.474h64.672     c4.465,0,8.084-3.618,8.084-8.084c0-4.466-3.62-8.084-8.084-8.084h-13.474v-13.474c0-10.402-8.461-18.863-18.862-18.863h-2.695     v-51.201c0-28.232,22.968-51.201,51.198-51.201C160.286,199.404,183.254,222.372,183.254,250.605z M157.774,188.337     c-7.928-3.288-16.615-5.103-25.718-5.103c-26.844,0-50.071,15.786-60.89,38.56L19,78.464c-4.24-11.651-3.691-24.255,1.549-35.493     c5.24-11.236,14.541-19.76,26.191-24c5.222-1.901,10.567-2.803,15.828-2.803c17.845,0,34.698,10.374,42.335,27.286     c0.066,0.161,0.136,0.319,0.211,0.474c0.399,0.911,0.771,1.837,1.116,2.784L157.774,188.337z M355.711,97.001h-37.725V59.274     h37.725V97.001z M495.833,94.307c0,1.486-1.209,2.695-2.695,2.695h-13.474V59.274h13.474c1.485,0,2.695,1.208,2.695,2.695V94.307     z" fill="#0074a6"/>
		</g>
	</g>
</g>
<g>
</g>
<g>
</g>
<g>
</g>
<g>
</g>
<g>
</g>
<g>
</g>
<g>
</g>
<g>
</g>
<g>
</g>
<g>
</g>
<g>
</g>
<g>
</g>
<g>
</g>
<g>
</g>
<g>
</g>
</svg>
