<?xml version="1.0" encoding="utf-8"?>
<!-- Generator: Adobe Illustrator 21.0.2, SVG Export Plug-In . SVG Version: 6.00 Build 0)  -->
<svg version="1.1" id="Слой_1" xmlns="http://www.w3.org/2000/svg" xmlns:xlink="http://www.w3.org/1999/xlink" x="0px" y="0px"
	 viewBox="0 0 92.4 65.8" style="enable-background:new 0 0 92.4 65.8;" xml:space="preserve">
<style type="text/css">
	.st0{fill:#1395BA;}
	.st1{fill:#F68A20;}
</style>
<title>4Logo [преобразованный]zzzzzzzzzz</title>
<path class="st0" d="M38.8,60.9c-0.2-0.2-0.5-0.3-0.8-0.3c-0.3,0-0.6,0.2-0.8,0.4c-0.5,0.4-0.8,0.7-1,0.9c-1.5,1.2-3.4,1.8-5.3,1.7
	c-5,0-9-4-9-9s4-9,9-9c1.9,0,3.8,0.6,5.3,1.7c0.5,0.4,0.8,0.7,1,0.9c0.2,0.2,0.5,0.3,0.8,0.4c0.6,0,1.1-0.5,1.2-1.2
	c0-0.3-0.2-0.6-0.4-0.8c-1-1.1-2.2-1.9-3.6-2.4c-1.4-0.6-2.9-0.9-4.4-0.9c-6.2,0.2-11.1,5.4-10.9,11.6c0.2,6,5,10.7,10.9,10.9
	c1.5,0,2.9-0.3,4.3-0.8c1.4-0.5,2.6-1.4,3.6-2.5c0.2-0.2,0.3-0.5,0.4-0.8C39.1,61.4,39,61.1,38.8,60.9z"/>
<path class="st0" d="M60.5,46.6c-4.4-4.4-11.5-4.4-15.9,0c-4.4,4.4-4.4,11.5,0,15.9c4.4,4.4,11.5,4.4,15.9,0c2.1-2.1,3.3-5,3.3-7.9
	C63.8,51.5,62.6,48.6,60.5,46.6z M58.9,60.9c-3.5,3.5-9.2,3.5-12.7,0c-3.5-3.5-3.5-9.2,0-12.7s9.2-3.5,12.7,0c1.7,1.7,2.6,4,2.6,6.3
	C61.6,56.9,60.6,59.2,58.9,60.9L58.9,60.9z"/>
<path class="st0" d="M71.8,44.7c0.1-1.2-0.9-2.3-2.1-2.4c-1.2-0.1-2.3,0.9-2.4,2.1c0,0.1,0,0.2,0,0.3v18.9c-0.1,1.2,0.9,2.3,2.1,2.4
	c1.2,0.1,2.3-0.9,2.4-2.1c0-0.1,0-0.2,0-0.3V44.7z"/>
<path class="st0" d="M91.8,43.1c-0.4-0.4-1-0.7-1.6-0.6H77.6c-1.2-0.1-2.3,0.9-2.4,2.1c-0.1,1.2,0.9,2.3,2.1,2.4c0.1,0,0.2,0,0.3,0
	h4v16.6c-0.1,1.2,0.9,2.3,2.1,2.4c1.2,0.1,2.3-0.9,2.4-2.1c0-0.1,0-0.2,0-0.3V46.9h4c1.3,0,2.3-1,2.2-2.3
	C92.4,44,92.1,43.5,91.8,43.1L91.8,43.1z"/>
<path class="st1" d="M19.5,1c-1.4-1.5-3.8-1.5-5.3-0.1c-0.7,0.7-1.2,1.7-1.1,2.8v35c0,1.8-1.5,3.3-3.3,3.3l0,0
	c-1.2-0.1-2.2-0.8-2.9-1.8c-0.7-1-1.8-1.6-3-1.8c-1,0-2,0.4-2.7,1.1C0.5,40.2,0,41.1,0,42.1c0,0.7,0.2,1.4,0.6,2
	c0.9,1.7,2.3,3,3.9,3.9C6.1,49,8,49.5,9.9,49.5c5.9,0,10.7-4.8,10.7-10.7c0,0,0,0,0,0v-35C20.6,2.8,20.2,1.8,19.5,1z"/>
<path class="st0" d="M31.3,3.3c0-1-0.8-1.9-1.9-1.9c-1,0-1.9,0.8-1.9,1.9c0,0,0,0,0,0V37c0,1,0.8,1.9,1.9,1.9s1.9-0.8,1.9-1.9
	c0,0,0,0,0,0V3.3z"/>
<path class="st0" d="M77.2,36.7L69.8,3.2c-0.3-1.2-0.9-1.8-1.9-1.8C67,1.4,66.2,2,66,2.8l-9.4,21.9L47.2,2.8c-0.2-0.8-1-1.4-1.8-1.4
	c-1,0-1.7,0.6-1.9,1.8L36,36.7C36,36.8,36,37,35.9,37.1c0,1.2,0.6,1.8,1.9,1.8c0.9,0.1,1.7-0.6,1.8-1.5l6.2-28.1L54.8,30
	c0.2,1,1.3,1.7,2.3,1.4c0.7-0.2,1.3-0.7,1.4-1.4l8.8-20.6l6.2,28.1c0.1,0.9,0.9,1.5,1.8,1.5c1.3,0,1.9-0.6,1.9-1.8
	C77.3,36.9,77.2,36.8,77.2,36.7L77.2,36.7z"/>
</svg>
