<svg id="Слой_1" data-name="Слой 1" xmlns="http://www.w3.org/2000/svg" viewBox="0 0 96 81.6"><defs><style>.cls-1{fill:#0274a6;}</style></defs><title>Монтажная область 2</title><path class="cls-1" d="M40,68.75a1.12,1.12,0,0,0-.81-.35,1.24,1.24,0,0,0-.78.36q-.71.59-1.05.9A8.53,8.53,0,0,1,32,71.39,9,9,0,0,1,25.63,56,8.67,8.67,0,0,1,32,53.37a8.5,8.5,0,0,1,5.32,1.74q.71.59,1.05.9a1.24,1.24,0,0,0,.78.36A1.19,1.19,0,0,0,40.3,55.2a1.26,1.26,0,0,0-.36-.79A9.21,9.21,0,0,0,36.32,52,11.8,11.8,0,0,0,32,51.12a11.25,11.25,0,0,0-8,19.21,10.84,10.84,0,0,0,8,3.3,11.82,11.82,0,0,0,4.32-.85,9.12,9.12,0,0,0,3.62-2.45,1.2,1.2,0,0,0,.36-.77A1.11,1.11,0,0,0,40,68.75Z"/><path class="cls-1" d="M61.73,54.42a11.23,11.23,0,0,0-15.9,0,11.26,11.26,0,0,0,8,19.21,11.25,11.25,0,0,0,8-19.21ZM60.15,68.75A9,9,0,1,1,47.41,56,9,9,0,1,1,60.15,68.75Z"/><path class="cls-1" d="M73.07,52.52a2.24,2.24,0,1,0-4.47,0V71.4a2.24,2.24,0,1,0,4.47,0Z"/><path class="cls-1" d="M93,50.92a2.18,2.18,0,0,0-1.61-.63H78.82a2.24,2.24,0,1,0,0,4.47h4.05V71.4a2.24,2.24,0,1,0,4.47,0V54.76h4.05A2.27,2.27,0,0,0,93,50.92Z"/><path class="cls-1" d="M21.77,8.9a3.63,3.63,0,0,0-2.68-1,3.59,3.59,0,0,0-3.73,3.73v35A3.26,3.26,0,0,1,12.1,49.8,4.15,4.15,0,0,1,9.19,48a4.21,4.21,0,0,0-3-1.78,3.93,3.93,0,0,0-2.73,1.08,3.4,3.4,0,0,0-1.19,2.6,4.19,4.19,0,0,0,.56,2,9.84,9.84,0,0,0,3.91,3.94,10.72,10.72,0,0,0,5.38,1.44,10.33,10.33,0,0,0,7.58-3.13,10.33,10.33,0,0,0,3.13-7.58v-35A3.63,3.63,0,0,0,21.77,8.9Z"/><path class="cls-1" d="M33.5,11.13a1.66,1.66,0,0,0-1.87-1.88,1.66,1.66,0,0,0-1.87,1.88V44.88a1.66,1.66,0,0,0,1.87,1.89,1.66,1.66,0,0,0,1.87-1.89Z"/><path class="cls-1" d="M79.42,44.5,72,11.05Q71.58,9.24,70,9.24a2,2,0,0,0-1.84,1.44l-9.38,21.9-9.38-21.9a2,2,0,0,0-1.84-1.44q-1.53,0-1.91,1.81L38.26,44.5a1.46,1.46,0,0,0-.08.46q0,1.81,1.93,1.81a1.66,1.66,0,0,0,1.78-1.47l6.24-28.1L57,37.81a1.91,1.91,0,0,0,3.72,0L69.5,17.24,75.74,45.3a1.66,1.66,0,0,0,1.79,1.47q1.94,0,1.94-1.81a2.12,2.12,0,0,0-.05-.46Z"/></svg>