<?xml version="1.0" encoding="utf-8"?>
<!-- Generator: Adobe Illustrator 21.0.2, SVG Export Plug-In . SVG Version: 6.00 Build 0)  -->
<svg version="1.1" id="Слой_1" xmlns="http://www.w3.org/2000/svg" xmlns:xlink="http://www.w3.org/1999/xlink" x="0px" y="0px"
	 viewBox="0 0 96 81.6" style="enable-background:new 0 0 96 81.6;" xml:space="preserve">
<style type="text/css">
	.st0{fill:#1395BA;}
	.st1{fill:#F68A20;}
</style>
<title>Logo</title>
<path class="st0" d="M41,68.8c-0.2-0.2-0.5-0.3-0.8-0.3c-0.3,0-0.6,0.2-0.8,0.4c-0.5,0.4-0.8,0.7-1,0.9c-1.5,1.2-3.4,1.8-5.4,1.7
	c-5,0-9-4-9-9c0-2.4,1-4.7,2.7-6.4c1.7-1.7,4-2.7,6.4-2.6c1.9,0,3.8,0.6,5.3,1.7c0.5,0.4,0.8,0.7,1,0.9c0.2,0.2,0.5,0.3,0.8,0.4
	c0.6,0,1.1-0.5,1.2-1.2c0-0.3-0.2-0.6-0.4-0.8c-1-1.1-2.2-1.9-3.6-2.4c-1.4-0.6-2.8-0.9-4.3-0.9c-6.2,0-11.3,5-11.3,11.2
	c0,3,1.2,5.9,3.3,8c2.1,2.2,5,3.4,8,3.3c1.5,0,2.9-0.3,4.3-0.8c1.4-0.5,2.6-1.4,3.6-2.4c0.2-0.2,0.3-0.5,0.4-0.8
	C41.3,69.3,41.2,69,41,68.8z"/>
<path class="st0" d="M62.7,54.4c-4.4-4.4-11.5-4.4-15.9,0c0,0,0,0,0,0c-4.4,4.4-4.4,11.5,0,15.9c2.1,2.1,5,3.3,8,3.3
	c6.2,0,11.3-5,11.3-11.2c0-3-1.2-5.9-3.3-8H62.7z M61.2,68.8c-3.5,3.5-9.2,3.5-12.7,0c-3.5-3.5-3.5-9.2,0-12.7l0,0
	c3.5-3.5,9.2-3.5,12.7,0C64.7,59.5,64.7,65.2,61.2,68.8z"/>
<path class="st0" d="M74.1,52.5c0.1-1.2-0.9-2.3-2.1-2.4s-2.3,0.9-2.4,2.1c0,0.1,0,0.2,0,0.3v18.9c-0.1,1.2,0.9,2.3,2.1,2.4
	c1.2,0.1,2.3-0.9,2.4-2.1c0-0.1,0-0.2,0-0.3V52.5z"/>
<path class="st0" d="M94,50.9c-0.4-0.4-1-0.7-1.6-0.6H79.8c-1.2-0.1-2.3,0.9-2.4,2.1c-0.1,1.2,0.9,2.3,2.1,2.4c0.1,0,0.2,0,0.3,0
	h4.1v16.6c-0.1,1.2,0.9,2.3,2.1,2.4c1.2,0.1,2.3-0.9,2.4-2.1c0-0.1,0-0.2,0-0.3V54.8h4.1c1.3,0,2.3-1,2.2-2.3
	C94.6,51.9,94.4,51.3,94,50.9z"/>
<path class="st1" d="M21.8,8.9c-0.7-0.7-1.7-1-2.7-1c-2-0.1-3.7,1.5-3.7,3.4c0,0.1,0,0.2,0,0.3v35c0,1.8-1.5,3.2-3.3,3.2
	C10.9,49.6,9.9,49,9.2,48c-0.7-1-1.8-1.6-3-1.8c-1,0-2,0.4-2.7,1.1c-0.8,0.6-1.2,1.6-1.2,2.6c0,0.7,0.2,1.4,0.6,2
	c0.9,1.7,2.3,3,3.9,3.9c1.6,0.9,3.5,1.4,5.4,1.4c2.9,0,5.6-1.1,7.6-3.1c2-2,3.2-4.7,3.1-7.6v-35C22.9,10.6,22.5,9.6,21.8,8.9z"/>
<path class="st0" d="M33.5,11.1c0.1-0.9-0.5-1.7-1.4-1.9c-0.2,0-0.3,0-0.5,0c-0.9-0.1-1.7,0.5-1.9,1.4c0,0.2,0,0.3,0,0.5v33.8
	c-0.1,0.9,0.5,1.8,1.4,1.9c0.2,0,0.3,0,0.5,0c0.9,0.1,1.7-0.5,1.9-1.4c0-0.2,0-0.3,0-0.5V11.1z"/>
<path class="st0" d="M79.4,44.5L72,11.1c-0.3-1.2-0.9-1.8-2-1.8c-0.9,0-1.6,0.6-1.8,1.4l-9.4,21.9l-9.4-21.9c-0.2-0.8-1-1.4-1.8-1.4
	c-1,0-1.7,0.6-1.9,1.8l-7.4,33.4c-0.1,0.1-0.1,0.3-0.1,0.5c0,1.2,0.6,1.8,1.9,1.8c0.9,0.1,1.7-0.6,1.8-1.5l6.2-28.1L57,37.8
	c0.2,1,1.3,1.7,2.3,1.4c0.7-0.2,1.3-0.7,1.4-1.4l8.8-20.6l6.2,28.1c0.1,0.9,0.9,1.5,1.8,1.5c1.3,0,1.9-0.6,1.9-1.8
	C79.5,44.8,79.5,44.7,79.4,44.5z"/>
</svg>
