<?xml version="1.0" encoding="utf-8"?>
<!-- Generator: Adobe Illustrator 21.0.2, SVG Export Plug-In . SVG Version: 6.00 Build 0)  -->
<svg version="1.1" xmlns="http://www.w3.org/2000/svg" xmlns:xlink="http://www.w3.org/1999/xlink" x="0px" y="0px"
	 viewBox="0 0 512 512" style="enable-background:new 0 0 512 512;" xml:space="preserve">
<style type="text/css">
	.st0{fill:#F68A20;}
	.st1{fill:none;stroke:#F68A20;stroke-miterlimit:10;}
	.st2{fill:none;stroke:#F68A20;stroke-width:20;stroke-miterlimit:10;}
</style>
<g id="Capa_1">
	<g>
		<path class="st0" d="M246,131.1v14.6c0.2,0,0.4,0,0.7,0c6.5,0,13,0.2,19.3,1.4v-16c13.9-4.3,24-17.2,24-32.5c0-18.7-15.3-34-34-34
			c-18.7,0-34,15.3-34,34C222,113.9,232.1,126.9,246,131.1z M256,84.6c7.7,0,14,6.3,14,14c0,7.7-6.3,14-14,14c-7.7,0-14-6.3-14-14
			C242,90.9,248.3,84.6,256,84.6z"/>
		<path class="st0" d="M194.1,180l-47.5-47.5c15.8-20.2,21.3-47,14.5-72.1c-1.5-5.3-6.9-8.5-12.3-7c-5.3,1.4-8.5,6.9-7,12.3
			c5.8,21.3-0.2,44.3-15.8,60c-0.1,0.1-0.1,0.1-0.2,0.2c-0.1,0.1-0.1,0.1-0.2,0.2c-24.2,24-63.4,24-87.5-0.2
			C14,101.7,14,62.4,38.2,38.2c15.3-15.3,37-21.5,58.1-16.5c5.4,1.3,10.8-2.1,12-7.4c1.3-5.4-2.1-10.8-7.4-12C73-4.3,44.3,3.8,24,24
			c-32,32-32,84,0,116c16,16,37,24,58,24c17.9,0,35.7-5.8,50.5-17.4l46.1,46.1C181.8,187,187.8,183.1,194.1,180z"/>
		<path class="st0" d="M454,102c-32,0-58,26-58,58c0,5.5,0.8,10.9,2.2,15.9l-59.7,29c1.7,2.1,3.4,4.4,4.8,6.8
			c2,3.4,3.6,7.1,4.8,10.8l58.8-28.5c10.5,14.6,27.7,24.1,47,24.1c32,0,58-26,58-58C512,128,486,102,454,102z M454,198
			c-21,0-38-17-38-38c0-21,17-38,38-38s38,17,38,38S474.9,198,454,198z"/>
		<path class="st0" d="M438,364c-16.8,0-32.3,5.6-44.7,15.1l-59-59c-4.4,5.1-9.3,9.6-14.7,13.6l59.6,59.6
			c-9.5,12.4-15.1,27.9-15.1,44.7c0,40.8,33.2,74,74,74c40.8,0,74-33.2,74-74C512,397.2,478.8,364,438,364z M438,492
			c-29.8,0-54-24.2-54-54c0-29.8,24.2-54,54-54s54,24.2,54,54C492,467.8,467.8,492,438,492z"/>
	</g>
	<g>
		<g>
			<path class="st0" d="M140.3,24.4L140,24c-3.9-3.9-10.2-3.9-14.1,0c-3.9,3.9-3.9,10.2,0,14.1l0.3,0.3c2,2,4.5,3,7.1,3
				c2.5,0,5.1-1,7-2.9C144.2,34.6,144.2,28.3,140.3,24.4z"/>
		</g>
	</g>
	<g>
		<g>
			<path class="st0" d="M147.3,363.8c-4-3.6-10.8-2-14.6,1.8l-41.5,40.9c-10.9-7.7-24.5-11.7-39-10.3c-28.1,2.7-50.4,25.8-52.1,54
				c-2.2,34.9,26.7,63.8,61.6,61.6c28.2-1.8,51.2-24,54-52.2c1.4-14.6-2.6-28.2-10.3-39l43.1-43.1
				C152.6,373.5,151.7,367.7,147.3,363.8z M58,492c-21,0-38-17-38-38c0-21,17-38,38-38s38,17,38,38C96,475,79,492,58,492z"/>
		</g>
	</g>
	<g>
		<g>
			<path class="st0" d="M169.2,344.8c-1.9-1.9-4.4-2.9-7.1-2.9s-5.2,1.1-7.1,2.9c-1.9,1.9-2.9,4.4-2.9,7.1s1.1,5.2,2.9,7.1
				c1.9,1.9,4.4,2.9,7.1,2.9c2.6,0,5.2-1.1,7.1-2.9c1.9-1.9,2.9-4.4,2.9-7.1S171.1,346.6,169.2,344.8z"/>
		</g>
	</g>
	<path class="st1" d="M256,151c-58,0-105,47-105,105s47,105,105,105c58,0,105-47,105-105S314,151,256,151z M313,338.1
		c-14.5,8.8-31.8,12.9-48.6,14.7c-16.6,1.7-34.1,0.5-49.8-5.6c-16.7-6.5-29.3-17.9-38.2-33.4c-9.9-17.3-14.6-37.5-14.7-57.4
		c-0.1-9.7,1-19.4,3.1-28.9c1-4.3,2.2-8.5,3.6-12.7c-1.7-0.7-3-2.2-3.1-4.5c-0.3-7.4,4.7-13.2,11.1-16.3c0.5-0.3,1.1-0.4,1.6-0.5
		c3.5-6.8,10.7-11.2,18-14.6c-0.4-2.8,1.5-6.2,4.9-6.3c0,0,0.1,0,0.1,0c0.4-0.8,1-1.5,2-2c11.4-6,24.4-10.4,37.3-11.5
		c14.4-1.2,29.3,1.2,43.2,5c9.7,2.7,19.3,6.2,28.3,11c8.9,4.7,18.6,11.5,21.2,21.9c0.2,0.8,0.2,1.5,0.1,2.2c3.8,3.7,7.3,7.8,10,12.5
		c5.1,8.5,7.3,18.3,8.6,28c2.6,19.2,4,39.4-3.5,57.7C341.4,314.3,328.6,328.6,313,338.1z"/>
</g>
<g id="Слой_2">
	<circle class="st2" cx="256" cy="256" r="105"/>
</g>
</svg>
