<?xml version="1.0" encoding="iso-8859-1"?>
<!-- Generator: Adobe Illustrator 19.0.0, SVG Export Plug-In . SVG Version: 6.00 Build 0)  -->
<svg xmlns="http://www.w3.org/2000/svg" xmlns:xlink="http://www.w3.org/1999/xlink" version="1.1" id="Layer_1" x="0px" y="0px" viewBox="0 0 228.511 228.511" style="enable-background:new 0 0 228.511 228.511;" xml:space="preserve" width="512px" height="512px">
<g>
	<g>
		<g>
			<path d="M44.19,77.614c0.488,0.292,1.024,0.441,1.567,0.515c0.105,0.926,0.143,1.855,0.283,2.774     c7.623,50.413,33.98,81.731,68.784,81.731c35.359,0,62.363-32.114,68.8-81.82c0.138-1.081,0.189-2.142,0.282-3.213     c0.296-0.108,0.6-0.182,0.896-0.294c1.6-0.603,2.662-2.139,2.662-3.852V52.037C187.465,23.345,162.286,0,131.341,0H98.307     C67.364,0,42.185,23.345,42.185,52.037v22.042C42.185,75.531,42.948,76.874,44.19,77.614z M114.825,154.399     c-36.38,0-55.181-38.6-60.646-74.727c-0.229-1.525-0.342-3.066-0.464-4.602c2.718-1.197,5.43-2.263,8.088-3.291     c9.352-3.611,18.978-7.33,26.111-17.088c17.675,25.403,43.919,27.655,69.443,27.655c6.093,0,12.121-0.794,18.04-2.219     C169.443,125.253,145.7,154.399,114.825,154.399z M50.419,52.037c0-24.153,21.483-43.803,47.888-43.803h33.035     c26.405,0,47.888,19.65,47.888,43.803v18.436c-0.391,0.079-0.748,0.203-1.094,0.393c-6.762,2.131-13.732,3.246-20.78,3.246     c-31.933,0-51.897-4.664-65.921-29.263c-0.736-1.287-2.103-2.079-3.578-2.079c-0.036,0-0.068,0-0.105,0     c-1.516,0.04-2.887,0.909-3.571,2.264C78.364,56.558,69.742,59.887,58.835,64.1c-2.754,1.061-5.561,2.147-8.415,3.405V52.037z" fill="#0074a6"/>
			<path d="M144.885,87.657l-16.357,2.01c-3.293,0.402-6.22,2.059-8.247,4.672c-2.015,2.598-2.903,5.834-2.501,9.115l0.189,1.536     h-7.422l0.189-1.536c0.402-3.281-0.487-6.518-2.501-9.115c-2.027-2.614-4.954-4.27-8.243-4.672l-16.361-2.01     c-6.759-0.865-12.927,4.001-13.759,10.776l-1.5,12.211c-0.832,6.775,3.989,12.963,10.744,13.791l16.361,2.006     c0.506,0.064,1.013,0.093,1.512,0.093c6.14,0,11.479-4.604,12.247-10.868l0.3-2.441h9.444l0.3,2.441     c0.772,6.264,6.108,10.872,12.247,10.872c0.499,0,1.001-0.032,1.512-0.096l16.361-2.006c6.755-0.828,11.576-7.016,10.744-13.791     l-1.5-12.211C157.807,91.658,151.603,86.789,144.885,87.657z M102.565,102.45l-1.5,12.211c-0.282,2.304-2.276,3.884-4.584,3.611     l-16.361-2.006c-2.288-0.282-3.86-2.312-3.578-4.616l1.5-12.211c0.261-2.127,1.999-3.643,4.061-3.643     c0.173,0,0.346,0.012,0.523,0.032l16.365,2.01c1.094,0.137,2.067,0.683,2.738,1.548     C102.406,100.254,102.698,101.344,102.565,102.45z M148.395,116.266l-16.361,2.006c-2.304,0.253-4.302-1.307-4.584-3.611     l-1.5-12.211c-0.133-1.106,0.161-2.195,0.836-3.064c0.672-0.865,1.644-1.411,2.742-1.548l16.361-2.01     c2.272-0.253,4.298,1.303,4.584,3.611l1.5,12.211C152.255,113.954,150.682,115.984,148.395,116.266z" fill="#0074a6"/>
			<path d="M192.482,150.282h-28.817c-1.339,0-2.593,0.651-3.365,1.741l-46.042,65.229l-46.042-65.229     c-0.772-1.09-2.027-1.741-3.365-1.741H36.033c-13.623,0-24.708,11.081-24.708,24.7c0,2.276,1.842,4.117,4.117,4.117     c2.275,0,4.117-1.842,4.117-4.117c0-9.079,7.39-16.465,16.473-16.465h26.682l48.177,68.253c0.772,1.09,2.026,1.741,3.365,1.741     s2.593-0.651,3.365-1.741l48.177-68.253h26.682c9.083,0,16.473,7.386,16.473,16.465c0,2.276,1.842,4.117,4.117,4.117     c2.275,0,4.117-1.842,4.117-4.117C217.19,161.363,206.104,150.282,192.482,150.282z" fill="#0074a6"/>
		</g>
	</g>
</g>
<g>
</g>
<g>
</g>
<g>
</g>
<g>
</g>
<g>
</g>
<g>
</g>
<g>
</g>
<g>
</g>
<g>
</g>
<g>
</g>
<g>
</g>
<g>
</g>
<g>
</g>
<g>
</g>
<g>
</g>
</svg>
